<svg xmlns="http://www.w3.org/2000/svg" viewBox="0 0 200 200" width="100%" height="100%">
  <rect width="200" height="200" fill="#f7f7f2"/>
  <path d="M100 100 C 110 90, 130 110, 120 120 C 100 140, 70 120, 80 100 C 90 70, 130 60, 140 90 C 150 130, 100 160, 70 140 C 30 110, 50 50, 90 40 C 140 30, 170 80, 150 120 C 120 180, 40 160, 30 100 C 20 30, 110 10, 160 50 C 220 100, 150 200, 80 180 C 10 160, -10 60, 60 20 C 130 -30, 230 50, 190 140" fill="none" stroke="#003153" stroke-width="8" stroke-linecap="round" stroke-linejoin="round"/>
  <circle cx="100" cy="100" r="10" fill="#003153" />
</svg>
